<svg width="35" height="30" viewBox="0 0 35 30" fill="none" xmlns="http://www.w3.org/2000/svg">
<path d="M34.4125 13.5573L29.1081 8.67458V3.03427C29.1081 2.01442 28.2103 1.18792 27.1007 1.18792C25.9937 1.18792 25.0959 2.01442 25.0959 3.03427V4.98142L21.1463 1.34575C19.1936 -0.450718 15.7985 -0.447532 13.8502 1.349L0.58721 13.5573C-0.195737 14.2794 -0.195737 15.4478 0.58721 16.1688C1.37051 16.8908 2.64236 16.8908 3.42537 16.1688L16.6871 3.96027C17.1192 3.56468 17.8806 3.56468 18.3104 3.9591L31.5744 16.1688C31.9677 16.5298 32.4805 16.7094 32.9932 16.7094C33.5069 16.7094 34.0205 16.5297 34.4126 16.1688C35.1958 15.4479 35.1958 14.2794 34.4125 13.5573Z" fill="#BABABA"/>
<path d="M18.1967 7.46509C17.8114 7.1106 17.1875 7.1106 16.8033 7.46509L5.13706 18.2005C4.95287 18.37 4.84845 18.6014 4.84845 18.8429V26.6729C4.84845 28.5103 6.46691 30 8.46292 30H14.2389V21.7662H20.7598V30H26.5358C28.5318 30 30.1502 28.5103 30.1502 26.673V18.8429C30.1502 18.6014 30.0467 18.37 29.8616 18.2005L18.1967 7.46509Z" fill="#BABABA"/>
</svg>
