<svg width="40" height="35" viewBox="0 0 40 35" fill="none" xmlns="http://www.w3.org/2000/svg">
<path d="M20.0028 0C14.2885 0 9.61728 4.08728 9.61728 9.08732C9.61728 14.0873 14.2885 18.1746 20.0028 18.1746C25.7171 18.1746 30.3883 14.0873 30.3883 9.08732C30.3883 4.08728 25.7171 0 20.0028 0Z" fill="#BABABA"/>
<path d="M37.826 25.4365C37.5538 24.8413 37.1911 24.2857 36.7829 23.7698C34.6967 21.0714 31.4768 19.2857 27.8487 18.8492C27.3952 18.8095 26.8964 18.8888 26.5335 19.1269C24.6287 20.3571 22.3612 20.992 20.0029 20.992C17.6445 20.992 15.377 20.3571 13.4722 19.1269C13.1094 18.8888 12.6105 18.7698 12.157 18.8492C8.52892 19.2857 5.26364 21.0714 3.22284 23.7698C2.81468 24.2857 2.45183 24.881 2.17978 25.4365C2.04376 25.6746 2.08907 25.9524 2.2251 26.1905C2.58794 26.7461 3.04142 27.3017 3.44957 27.7778C4.08447 28.5318 4.76477 29.2064 5.53577 29.8413C6.17067 30.3968 6.89628 30.9127 7.62197 31.4286C11.2047 33.7699 15.5131 35 19.9576 35C24.402 35 28.7104 33.7698 32.2932 31.4286C33.0188 30.9524 33.7444 30.3968 34.3794 29.8413C35.105 29.2064 35.8306 28.5318 36.4656 27.7778C36.919 27.2619 37.3273 26.7461 37.69 26.1905C37.9167 25.9524 37.962 25.6746 37.826 25.4365Z" fill="#BABABA"/>
</svg>
